<mxfile host="app.diagrams.net" modified="2024-02-13T10:00:18.752Z" agent="Mozilla/5.0 (Windows NT 10.0; Win64; x64) AppleWebKit/537.36 (KHTML, like Gecko) Chrome/121.0.0.0 Safari/537.36" version="23.1.3" etag="2Y9tBTuxGrCnk9umQ3w4" type="github">
  <diagram name="Page-1" id="8V_Q8jUsB_yBpdHDQH_E">
    <mxGraphModel>
      <root>
        <mxCell id="0" />
        <mxCell id="1" parent="0" />
      </root>
    </mxGraphModel>
  </diagram>
</mxfile>
